<svg xmlns="http://www.w3.org/2000/svg" viewBox="0 0 348.12 196.53"><defs><style>.cls-1{fill:#fff;stroke:#fff;stroke-miterlimit:10;}</style></defs><title>Colored White</title><g id="Layer_2" data-name="Layer 2"><g id="Colored_White" data-name="Colored White"><path class="cls-1" d="M346.6,181.69C305.34,135.64,223.94,142.63,191.08,195L174.43,26.44,157.3,195c-21.56-21.78-43.78-95.69-36.54-128.52l28.43,9.87Q136.7,51,124.19,25.69l-50,25.68,23.35,7.78c-4,27.46,1.29,73.62,9.91,97.13C75,141.61,20.05,158.17,1.78,181.69L67,18.61c59-42.55,134.45-6.59,162.82,71l-15.32,5.67-13.25,4.91L249.19,126h0L278,74q-6.54,2.19-13.26,4.33-7.71,2.48-15.28,4.77A151.29,151.29,0,0,0,199,4.24C219.6-4.12,265.14,4,281.38,18.61Z"/></g></g></svg>