<svg id="SvgjsSvg1001" width="288" height="288" xmlns="http://www.w3.org/2000/svg" version="1.1" xmlns:xlink="http://www.w3.org/1999/xlink" xmlns:svgjs="http://svgjs.com/svgjs"><defs id="SvgjsDefs1002"></defs><g id="SvgjsG1008" transform="matrix(1,0,0,1,0,0)"><svg xmlns="http://www.w3.org/2000/svg" width="288" height="288" viewBox="0 0 24 24"><path d="M5.785 22.827L5.457 21.303 6.434 21.092 6.527 21.522 6.945 21.382 7.264 22.329zM5.017 19.262l-.44-2.041.977-.211.44 2.041L5.017 19.262zM3.605 15.604C3.22 14.974 2.91 14.3 2.688 13.602l.953-.305c.198.622.474 1.223.818 1.785L3.605 15.604zM9.277 21.651l-.32-.947 1.979-.667.32.947L9.277 21.651zM13.118 20.387l-.068-.998c.66-.045 1.316-.158 1.951-.337l.271.963C14.571 20.212 13.847 20.337 13.118 20.387zM17.305 19.203l-.467-.885c.588-.311 1.139-.683 1.639-1.104l.645.764C18.567 18.446 17.956 18.858 17.305 19.203zM20.631 16.386l-.799-.602c.399-.529.733-1.1.993-1.696l.916.4C21.45 15.155 21.077 15.794 20.631 16.386zM22.372 12.378l-.986-.17c.076-.44.114-.895.114-1.35-.001-.204-.008-.407-.023-.609l.998-.072c.016.224.024.45.025.68C22.5 11.37 22.457 11.881 22.372 12.378zM2.279 11.425c-.012-.188-.018-.377-.018-.566 0-.548.05-1.097.147-1.632l.984.18c-.088.477-.132.965-.132 1.452 0 .17.006.338.016.506L2.279 11.425zM21.093 8.329c-.204-.617-.485-1.215-.835-1.776l.848-.529c.393.629.707 1.299.937 1.991L21.093 8.329zM3.979 7.535L3.067 7.123c.3-.664.682-1.298 1.134-1.884l.791.611C4.588 6.375 4.246 6.941 3.979 7.535zM19.03 5.013c-.462-.463-.98-.878-1.541-1.235l.537-.844c.623.396 1.198.858 1.711 1.372L19.03 5.013zM6.365 4.436L5.729 3.664C6.291 3.201 6.906 2.796 7.56 2.461L8.017 3.35C7.428 3.653 6.871 4.019 6.365 4.436zM15.717 2.898c-.617-.229-1.263-.394-1.919-.49l.146-.99c.725.107 1.438.29 2.12.543L15.717 2.898zM9.862 2.636l-.26-.965c.701-.189 1.428-.307 2.157-.349l.059.998C11.156 2.358 10.498 2.465 9.862 2.636zM8.058 19.543L7.307 15.782C5.771 14.493 4.898 12.708 4.898 10.83c0-3.742 3.358-6.786 7.487-6.786 4.128 0 7.486 3.044 7.486 6.786 0 3.741-3.358 6.785-7.486 6.785-.146 0-.287-.013-.427-.028z" fill="#ffffff" class="color000 svgShape"></path></svg></g></svg>